<?xml version="1.0" encoding="utf-8"?>
<!-- Generator: Adobe Illustrator 27.5.0, SVG Export Plug-In . SVG Version: 6.00 Build 0)  -->
<svg version="1.1" xmlns="http://www.w3.org/2000/svg" xmlns:xlink="http://www.w3.org/1999/xlink" x="0px" y="0px"
	 viewBox="0 0 500 500" style="enable-background:new 0 0 500 500;" xml:space="preserve">
<g id="BACKGROUND">
	<g>
		<rect style="fill:#FFFFFF;" width="500" height="500"/>
		<g>
			<defs>
				<path id="SVGID_1_" d="M88.315,112.82c0,0,52.519-8.441,68.463-45.017c24.375-55.919,86.094-53.525,118.168-25.322
					c27.503,24.184,46.892,24.384,94.722,35.638c47.83,11.254,68.463,31.887,76.903,67.525
					c8.441,35.638-25.322,67.525-10.316,109.728c15.005,42.203,16.92,81.033-9.147,118.813
					c-27.118,39.302-41.607,37.226-92.904,48.056c-2.942,0.621-6.308,1.728-9.961,3.199c-41.344,16.65-88.057,14.411-127.204-6.898
					c-18.347-9.987-41.448-17.478-69.515-17.558c-45.094-0.13-68.282-34.945-70.157-64.956
					c-1.876-30.011,0.995-44.882-11.298-75.027C18.914,194.413,37.671,129.701,88.315,112.82z"/>
			</defs>
			<clipPath id="SVGID_00000183234337754967230120000011000715324126660242_">
				<use xlink:href="#SVGID_1_"  style="overflow:visible;"/>
			</clipPath>
			
				<linearGradient id="SVGID_00000057120840073824199050000001560479765844263040_" gradientUnits="userSpaceOnUse" x1="238.5401" y1="501.1284" x2="263.549" y2="96.6052">
				<stop  offset="0" style="stop-color:#393591"/>
				<stop  offset="1" style="stop-color:#59D9FA"/>
			</linearGradient>
			
				<rect x="19.852" y="11.533" style="clip-path:url(#SVGID_00000183234337754967230120000011000715324126660242_);fill:url(#SVGID_00000057120840073824199050000001560479765844263040_);" width="468.922" height="468.922"/>
			
				<linearGradient id="SVGID_00000049930263954556452770000016080165036073127317_" gradientUnits="userSpaceOnUse" x1="256.0783" y1="280.4113" x2="265.4569" y2="463.2908">
				<stop  offset="0" style="stop-color:#393591"/>
				<stop  offset="1" style="stop-color:#59D9FA"/>
			</linearGradient>
			
				<rect x="19.852" y="11.533" style="clip-path:url(#SVGID_00000183234337754967230120000011000715324126660242_);fill:url(#SVGID_00000049930263954556452770000016080165036073127317_);" width="468.922" height="468.922"/>
			
				<linearGradient id="SVGID_00000128485210797805782880000005074868182935410852_" gradientUnits="userSpaceOnUse" x1="274.2998" y1="59.6638" x2="251.7914" y2="386.6591">
				<stop  offset="0" style="stop-color:#393591"/>
				<stop  offset="1" style="stop-color:#59D9FA"/>
			</linearGradient>
			
				<path style="clip-path:url(#SVGID_00000183234337754967230120000011000715324126660242_);fill:url(#SVGID_00000128485210797805782880000005074868182935410852_);" d="
				M-32.354,409.491c0,0,75.027-35.013,151.931-7.503s125.422-39.215,147.334-49.62c29.588-14.049,55.73-18.757,113.006,28.561
				c57.276,47.318,135.805,11.217,150.81-3.788s-2.25-121.735-2.25-121.735L488.774,11.533H19.852L-32.354,409.491z"/>
			
				<linearGradient id="SVGID_00000050644696640815955610000009085832848725326252_" gradientUnits="userSpaceOnUse" x1="741.2674" y1="93.8375" x2="-188.8403" y2="330.3555">
				<stop  offset="0" style="stop-color:#393591"/>
				<stop  offset="1" style="stop-color:#59D9FA"/>
			</linearGradient>
			
				<path style="clip-path:url(#SVGID_00000183234337754967230120000011000715324126660242_);fill:url(#SVGID_00000050644696640815955610000009085832848725326252_);" d="
				M-17.251,135.532c13.974-22.495,36.044-38.986,61.8-45.144c16.875-4.034,35.1-3.737,48.363,8.888
				c32.292,30.738,35.979,67.085,103.536,52.35c67.557-14.735,93.528-53.739,151.186-11.997
				c57.658,41.742,115.819,39.777,146.455,25.397c30.636-14.38,61.062,134.782,29.386,160.474
				c-37.225,30.193-75.956-15.453-175.841-76.397c-99.885-60.943-166.101,9.023-193.015,38.126S80.812,380.731-6.72,372.649
				C-141.576,360.197-55.993,197.897-17.251,135.532z"/>
			<g style="clip-path:url(#SVGID_00000183234337754967230120000011000715324126660242_);">
				<g>
					<path style="fill:#5473BE;" d="M125.377,341.831c-1.352-4.855-12.283-6.355-27.2-4.494c-1.85,0.231-2.982-1.978-1.723-3.354
						c8.584-9.386,28.086-31.643,24.469-36.057c-2.449-2.989-9.259-1.898-18.116,2.249c-1.276,0.598-2.597-0.759-1.97-2.022
						c9.362-18.842,12.668-35.058,7.235-38.195c-3.962-2.287-11.622,2.924-19.992,12.709c-1.207,1.411-3.51,0.557-3.502-1.299
						c0.001-0.233,0.001-0.466,0.001-0.7c0-25.949-5.888-46.985-13.152-46.985c-7.264,0-13.152,21.036-13.152,46.985v0.058
						c0,1.84-2.284,2.69-3.491,1.302c-8.152-9.369-15.563-14.307-19.436-12.07c-5.433,3.137-2.127,19.353,7.235,38.195
						c0.627,1.262-0.693,2.619-1.97,2.022c-8.857-4.147-15.667-5.238-18.116-2.249c-4.402,5.373,6.871,21.964,25.417,37.786
						c0.835,0.712,0.32,2.078-0.777,2.05c-8.061-0.205-27.887-0.264-29.093,4.069c-1.948,6.998,16.738,18.312,41.736,25.272
						c0.517,0.144,1.167,0.49,1.842,0.919c2.978,1.895,6.563,2.628,10.025,1.942l0.063-0.012c0.021,0.004,0.042,0.008,0.063,0.012
						c3.462,0.686,7.047-0.047,10.025-1.942c0.675-0.43,1.325-0.775,1.842-0.919C108.64,360.143,127.325,348.828,125.377,341.831z"
						/>
					<path style="fill:#6182D8;" d="M110.605,345.482L110.605,345.482l-37.777,9.789v-14.934c0-3.075,1.442-5.971,3.894-7.826
						l29.333-22.175c0.984-0.744,1.178-2.144,0.435-3.128l0-0.001l-33.661,25.448v-9.75c0-4.887,1.5-9.655,4.296-13.663
						l21.984-31.502c0.706-1.011,0.458-2.403-0.553-3.109l0,0l-25.726,36.864v-63.27h-2.233v63.376l-26.799-36.987l0,0
						c-0.999,0.724-1.222,2.12-0.498,3.119l22.756,31.408c2.952,4.074,4.541,8.976,4.541,14.007v9.554l-34.986-25.507l0,0
						c-0.727,0.997-0.508,2.394,0.489,3.12l30.467,22.212c2.533,1.847,4.031,4.792,4.031,7.927v14.791l-35.347-9.761l0,0.001
						c-0.328,1.189,0.369,2.419,1.558,2.747l28.364,7.832c3.205,0.885,5.425,3.801,5.425,7.126v25.557h2.233V363.3
						c0-3.369,2.277-6.311,5.538-7.156l30.637-7.939C110.197,347.895,110.914,346.676,110.605,345.482z"/>
				</g>
				<g>
					<path style="fill:#5473BE;" d="M342.334,486.894c1.895-4.67-5.845-12.534-18.793-20.171c-1.606-0.947-1.153-3.387,0.684-3.708
						c12.53-2.189,41.565-7.902,41.397-13.607c-0.114-3.862-6.172-7.158-15.719-9.283c-1.376-0.306-1.593-2.187-0.325-2.804
						c18.92-9.202,31.443-20.023,29.056-25.825c-1.74-4.231-10.989-4.783-23.592-2.147c-1.817,0.38-3.12-1.703-1.98-3.167
						c0.143-0.184,0.286-0.368,0.429-0.553c15.848-20.547,24.033-40.801,18.281-45.237c-5.752-4.436-23.262,8.624-39.11,29.172
						l-0.035,0.046c-1.123,1.457-3.451,0.735-3.56-1.101c-0.733-12.397-3.585-20.833-8.018-21.428
						c-6.218-0.834-13.504,14.026-17.598,34.662c-0.274,1.383-2.149,1.651-2.794,0.398c-4.48-8.693-9.207-13.716-12.971-12.845
						c-6.767,1.566-7.973,21.588-2.951,45.444c0.226,1.074-1.016,1.841-1.868,1.149c-6.257-5.086-21.921-17.241-25.522-14.547
						c-5.816,4.351,2.069,24.723,17.613,45.501c0.321,0.43,0.625,1.1,0.897,1.853c1.201,3.319,3.591,6.089,6.752,7.66l0.058,0.029
						c0.014,0.016,0.028,0.032,0.042,0.048c2.322,2.658,5.609,4.267,9.124,4.585c0.797,0.072,1.523,0.195,2.02,0.397
						C317.897,491.172,339.603,493.625,342.334,486.894z"/>
					<path style="fill:#6182D8;" d="M328.407,480.763L328.407,480.763l-35.892-15.321l9.121-11.825
						c1.878-2.435,4.788-3.848,7.863-3.818l36.77,0.356c1.233,0.012,2.243-0.978,2.255-2.211v-0.001l-42.196-0.408l5.955-7.721
						c2.984-3.869,7.084-6.73,11.746-8.195l36.647-11.518c1.177-0.37,1.831-1.623,1.461-2.8l0,0L319.25,430.78l38.641-50.099
						l-1.768-1.364l-38.707,50.183l1.369-45.655l0,0c-1.233-0.037-2.262,0.932-2.299,2.165l-1.163,38.768
						c-0.151,5.029-1.886,9.881-4.959,13.865l-5.835,7.565l-12.125-41.565l0,0c-1.184,0.345-1.864,1.585-1.519,2.769l10.559,36.196
						c0.878,3.009,0.265,6.257-1.65,8.739l-9.033,11.712l-22.027-29.317l-0.001,0c-0.986,0.741-1.185,2.141-0.444,3.127
						l17.676,23.525c1.997,2.658,1.974,6.323-0.056,8.956L270.3,490.587l1.768,1.364l15.543-20.152
						c2.057-2.667,5.658-3.607,8.756-2.284l29.108,12.425C326.61,482.425,327.923,481.898,328.407,480.763z"/>
				</g>
				<g>
					
						<linearGradient id="SVGID_00000145039317284598831840000017379629790228769957_" gradientUnits="userSpaceOnUse" x1="98.8576" y1="209.3358" x2="-8.6768" y2="267.4795" gradientTransform="matrix(0.9744 0.2247 -0.2247 0.9744 59.0846 -0.563)">
						<stop  offset="0" style="stop-color:#393591"/>
						<stop  offset="1" style="stop-color:#59D9FA"/>
					</linearGradient>
					<path style="fill:url(#SVGID_00000145039317284598831840000017379629790228769957_);" d="M20.719,274.196l13.507,5.879
						c1.751-1.638,3.381-3.332,4.91-5.069l-2.32-3.836l3.988,1.871c16.36-19.986,19.269-45.504,17.925-66.466l-6.666-1.537
						l6.2-4.045c-1.972-19.398-7.128-33.674-7.128-33.674s-4.49,39.869-25.204,56.444c-0.53,0.424-1.04,0.874-1.555,1.316
						l1.912,5.486l-4.045-3.56C-1.592,249.563-8.996,293.089,1.633,329.147c0,0,8.83-24.779,28.558-45.117L20.719,274.196z"/>
					<g>
						<path style="fill:#5473BE;" d="M47.839,210.832c-1.137,10.748-4.248,21.373-9.562,30.935
							c-0.721,1.161-1.393,2.355-2.158,3.492c-0.796,1.108-1.567,2.269-2.403,3.323l-4.931,6.425
							c-3.262,4.287-6.439,8.628-9.282,13.182c-2.856,4.537-5.562,9.184-7.766,14.07c-0.287,0.605-0.589,1.204-0.865,1.814
							l-0.772,1.855c-0.507,1.24-1.047,2.468-1.528,3.718l-1.326,3.795c-0.219,0.633-0.467,1.258-0.662,1.899l-0.557,1.932
							l-1.116,3.868l-0.863,3.933c-0.657,2.61-0.934,5.288-1.364,7.943c-0.252,1.325-0.328,2.669-0.455,4.009l-0.36,4.027
							c-0.1,1.344-0.073,2.694-0.118,4.042l-0.117,4.053c-0.102-2.697-0.256-5.404-0.262-8.112l0.151-4.062
							c0.058-1.354,0.064-2.715,0.248-4.061c0.333-2.692,0.539-5.408,1.115-8.067l0.748-4.01l1.005-3.954
							c0.589-2.663,1.571-5.21,2.393-7.806c0.468-1.278,0.995-2.534,1.49-3.803l0.754-1.899c0.27-0.625,0.566-1.238,0.848-1.858
							c0.572-1.236,1.142-2.473,1.736-3.698l1.914-3.608c0.614-1.217,1.342-2.367,2.023-3.545c0.69-1.173,1.369-2.353,2.125-3.483
							c2.913-4.596,6.131-8.982,9.46-13.255l5.042-6.353c0.863-1.048,1.592-2.139,2.405-3.2c0.778-1.08,1.469-2.224,2.209-3.334
							c2.765-4.573,4.945-9.506,6.72-14.578C45.557,221.392,46.919,216.157,47.839,210.832z"/>
					</g>
				</g>
				<g>
					
						<linearGradient id="SVGID_00000044879485587153871560000001888066819552273285_" gradientUnits="userSpaceOnUse" x1="391.1766" y1="377.2626" x2="481.8347" y2="283.4785">
						<stop  offset="0" style="stop-color:#393591"/>
						<stop  offset="1" style="stop-color:#59D9FA"/>
					</linearGradient>
					<path style="fill:url(#SVGID_00000044879485587153871560000001888066819552273285_);" d="M421.962,372.311l14.482,2.694
						c1.339-1.989,2.546-4.006,3.646-6.042l-3.122-3.217l4.306,0.928c11.452-23.151,8.553-48.67,2.535-68.794h-6.841l5.133-5.335
						c-6.279-18.459-14.511-31.212-14.511-31.212s4.582,39.859-11.879,60.664c-0.421,0.532-0.817,1.085-1.22,1.632l3.095,4.916
						l-4.741-2.56c-18.157,27.335-15.593,71.411,2.866,104.16c0,0,3.038-26.129,17.692-50.379L421.962,372.311z"/>
					<g>
						<path style="fill:#5473BE;" d="M434.154,304.474c1.307,10.728,0.663,21.781-2.368,32.292
							c-0.442,1.293-0.828,2.608-1.318,3.887c-0.527,1.258-1.017,2.563-1.595,3.778l-3.362,7.368
							c-2.216,4.91-4.336,9.854-6.083,14.93c-1.764,5.063-3.357,10.199-4.407,15.456c-0.144,0.654-0.304,1.306-0.435,1.962
							l-0.335,1.981c-0.215,1.322-0.466,2.64-0.653,3.966l-0.44,3.996c-0.071,0.666-0.172,1.331-0.219,1.999l-0.109,2.008
							l-0.219,4.02l0.043,4.026c-0.054,2.691,0.277,5.362,0.455,8.047c0.052,1.348,0.28,2.674,0.457,4.009l0.553,4.005
							c0.205,1.332,0.535,2.641,0.793,3.966l0.797,3.975c-0.705-2.605-1.463-5.208-2.077-7.846l-0.766-3.992
							c-0.248-1.333-0.547-2.66-0.671-4.012c-0.281-2.698-0.69-5.391-0.726-8.112l-0.173-4.075l0.091-4.079
							c-0.024-2.727,0.36-5.43,0.578-8.144c0.168-1.351,0.4-2.693,0.597-4.041l0.308-2.02c0.122-0.67,0.274-1.334,0.409-2.001
							c0.28-1.333,0.557-2.667,0.861-3.993l1.054-3.946c0.325-1.323,0.776-2.608,1.175-3.909c0.409-1.298,0.805-2.6,1.288-3.872
							c1.806-5.133,3.956-10.13,6.24-15.042l3.486-7.323c0.606-1.215,1.071-2.442,1.625-3.659c0.516-1.227,0.931-2.497,1.404-3.745
							c1.667-5.078,2.683-10.374,3.273-15.715C434.303,315.276,434.454,309.869,434.154,304.474z"/>
					</g>
				</g>
				<g>
					
						<linearGradient id="SVGID_00000142153286014686285730000004172117905162692231_" gradientUnits="userSpaceOnUse" x1="453.733" y1="346.3972" x2="346.1937" y2="404.5435">
						<stop  offset="0" style="stop-color:#393591"/>
						<stop  offset="1" style="stop-color:#59D9FA"/>
					</linearGradient>
					<path style="fill:url(#SVGID_00000142153286014686285730000004172117905162692231_);" d="M379.227,413.424l14.482,2.694
						c1.339-1.989,2.546-4.006,3.646-6.042l-3.122-3.217l4.306,0.928c11.452-23.151,8.553-48.67,2.535-68.794h-6.841l5.133-5.335
						c-6.279-18.459-14.511-31.212-14.511-31.212s4.582,39.859-11.879,60.664c-0.421,0.532-0.817,1.085-1.22,1.632l3.095,4.916
						l-4.741-2.56c-18.157,27.335-15.593,71.411,2.866,104.16c0,0,3.038-26.129,17.692-50.379L379.227,413.424z"/>
					<g>
						<path style="fill:#5473BE;" d="M391.419,345.586c1.307,10.728,0.663,21.781-2.368,32.292
							c-0.442,1.293-0.828,2.608-1.318,3.887c-0.527,1.258-1.017,2.563-1.595,3.778l-3.362,7.368
							c-2.216,4.91-4.336,9.854-6.083,14.93c-1.764,5.063-3.357,10.199-4.407,15.456c-0.144,0.654-0.304,1.306-0.435,1.962
							l-0.335,1.981c-0.215,1.322-0.466,2.64-0.653,3.966l-0.439,3.996c-0.071,0.666-0.172,1.331-0.219,1.999l-0.109,2.008
							l-0.219,4.02l0.043,4.026c-0.054,2.691,0.277,5.362,0.455,8.047c0.052,1.348,0.28,2.674,0.457,4.009l0.553,4.005
							c0.205,1.332,0.534,2.641,0.793,3.966l0.796,3.975c-0.705-2.605-1.463-5.208-2.077-7.846l-0.766-3.992
							c-0.248-1.333-0.547-2.66-0.67-4.012c-0.281-2.698-0.69-5.391-0.726-8.112l-0.173-4.075l0.091-4.079
							c-0.024-2.727,0.36-5.43,0.578-8.144c0.168-1.35,0.4-2.693,0.597-4.04l0.309-2.02c0.122-0.67,0.273-1.334,0.409-2.001
							c0.279-1.333,0.557-2.667,0.861-3.994l1.054-3.946c0.325-1.323,0.776-2.608,1.175-3.909c0.409-1.298,0.805-2.6,1.288-3.872
							c1.806-5.133,3.956-10.13,6.24-15.042l3.486-7.323c0.606-1.215,1.071-2.442,1.625-3.659c0.516-1.227,0.931-2.497,1.404-3.745
							c1.667-5.078,2.683-10.374,3.274-15.715C391.567,356.389,391.718,350.982,391.419,345.586z"/>
					</g>
				</g>
				<g>
					
						<linearGradient id="SVGID_00000052807630493523562480000006114035362784500402_" gradientUnits="userSpaceOnUse" x1="175.1438" y1="338.1169" x2="67.6046" y2="396.2632">
						<stop  offset="0" style="stop-color:#393591"/>
						<stop  offset="1" style="stop-color:#59D9FA"/>
					</linearGradient>
					<path style="fill:url(#SVGID_00000052807630493523562480000006114035362784500402_);" d="M100.638,405.143l14.482,2.694
						c1.339-1.989,2.546-4.006,3.646-6.042l-3.122-3.217l4.306,0.928c11.452-23.151,8.553-48.67,2.535-68.794h-6.841l5.133-5.335
						c-6.279-18.46-14.511-31.212-14.511-31.212s4.581,39.859-11.879,60.664c-0.421,0.532-0.817,1.085-1.22,1.632l3.095,4.916
						l-4.741-2.56c-18.157,27.335-15.593,71.411,2.866,104.16c0,0,3.038-26.129,17.692-50.379L100.638,405.143z"/>
					<g>
						<path style="fill:#5473BE;" d="M112.83,337.306c1.307,10.728,0.663,21.781-2.368,32.292c-0.442,1.293-0.828,2.608-1.318,3.887
							c-0.527,1.258-1.017,2.563-1.595,3.778l-3.362,7.368c-2.216,4.91-4.336,9.854-6.083,14.93
							c-1.764,5.063-3.357,10.198-4.407,15.456c-0.144,0.654-0.304,1.305-0.435,1.962l-0.335,1.981
							c-0.215,1.322-0.466,2.64-0.653,3.966l-0.439,3.996c-0.071,0.666-0.172,1.331-0.219,1.999l-0.109,2.008l-0.219,4.02
							l0.043,4.026c-0.054,2.691,0.277,5.362,0.455,8.047c0.052,1.348,0.28,2.675,0.457,4.009l0.553,4.005
							c0.205,1.332,0.535,2.641,0.793,3.966l0.797,3.975c-0.705-2.605-1.463-5.208-2.077-7.846l-0.766-3.992
							c-0.248-1.333-0.547-2.66-0.671-4.012c-0.28-2.698-0.69-5.391-0.726-8.112l-0.173-4.075l0.091-4.079
							c-0.024-2.727,0.36-5.43,0.578-8.144c0.168-1.35,0.4-2.693,0.597-4.04l0.308-2.02c0.123-0.669,0.273-1.333,0.409-2.001
							c0.279-1.333,0.557-2.667,0.861-3.994l1.054-3.946c0.325-1.323,0.776-2.608,1.175-3.909c0.409-1.298,0.806-2.6,1.288-3.872
							c1.806-5.133,3.956-10.13,6.24-15.042l3.486-7.323c0.606-1.215,1.071-2.442,1.625-3.659c0.516-1.227,0.931-2.497,1.404-3.745
							c1.667-5.078,2.683-10.374,3.273-15.715C112.978,348.109,113.129,342.702,112.83,337.306z"/>
					</g>
				</g>
			</g>
		</g>
	</g>
</g>
<g id="OBJECTS">
	<polygon style="opacity:0.51;fill:#FFFFFF;" points="291.141,272.894 307.612,256.422 307.612,230.804 265.522,272.894 	"/>
	<g>
		<g>
			<path style="fill:#90B8F9;" d="M345.531,297.64l-2.094,0.752c-0.532,0.191-1.118-0.085-1.309-0.617l-8.932-24.879
				c-0.191-0.532,0.085-1.118,0.617-1.309l2.094-0.752c0.532-0.191,1.118,0.086,1.309,0.617l8.932,24.879
				C346.339,296.863,346.063,297.449,345.531,297.64z"/>
		</g>
		<path style="fill:#FFFFFF;" d="M356.23,319.12l-14.893,5.347c-1.558,0.559-3.287-0.133-4.029-1.613l-11.049-22.051
			c-0.37-0.738-0.011-1.634,0.766-1.914l23.979-8.609c0.777-0.279,1.624,0.184,1.808,0.989l5.5,24.043
			C358.682,316.926,357.788,318.56,356.23,319.12z"/>
		<g>
			<path style="fill:#FFFFFF;" d="M351.685,301.673c0.117,0.54-0.227,1.073-0.767,1.19l-2.218,0.48
				c-0.54,0.117-1.073-0.227-1.19-0.767l-6.443-29.811c-0.117-0.54,0.227-1.073,0.767-1.19l2.218-0.48
				c0.54-0.117,1.073,0.227,1.19,0.767L351.685,301.673z"/>
		</g>
	</g>
	<g>
		<path style="fill:#1B55D4;" d="M254.884,282.048l-13.164-0.139l-0.484-0.005l-13.164-0.139
			c1.999,13.151-1.205,24.951-8.313,35.736l21.1,0.222l0.484,0.005l21.1,0.222C255.563,307.018,252.608,295.154,254.884,282.048z"/>
		<path style="fill:#224799;" d="M266.069,319.122l-49.962-0.526c-1.964-0.021-3.539-1.629-3.518-3.593l0.01-0.987
			c0.021-1.964,1.629-3.539,3.593-3.518l49.962,0.526c1.964,0.021,3.539,1.629,3.518,3.593l-0.01,0.987
			C269.642,317.568,268.033,319.143,266.069,319.122z"/>
		<path style="fill:#224799;" d="M317.381,284.974l-150.993-1.591c-4.122-0.044-7.427-3.42-7.384-7.541l1.008-95.624
			c0.043-4.122,3.42-7.427,7.541-7.384l150.993,1.591c4.121,0.043,7.427,3.42,7.384,7.541l-1.008,95.624
			C324.878,281.711,321.502,285.017,317.381,284.974z"/>
		<polygon style="fill:#56B9FF;" points="316.294,265.055 167.656,263.489 168.639,181.498 317.276,183.064 		"/>
		<polygon style="fill:#59B0FF;" points="316.294,265.055 167.656,263.489 167.75,259.265 316.388,260.831 		"/>
		
			<rect x="168.611" y="182.281" transform="matrix(0.9999 0.0105 -0.0105 0.9999 1.957 -2.5489)" style="fill:#59B0FF;" width="148.646" height="4.425"/>
		<path style="fill:#3B85F7;" d="M247.07,274.349c-0.03,2.817-2.338,5.077-5.155,5.048c-2.817-0.03-5.077-2.338-5.048-5.155
			c0.03-2.817,2.338-5.077,5.155-5.048C244.839,269.223,247.099,271.531,247.07,274.349z"/>
		<circle style="fill:#FFFFFF;" cx="242.348" cy="221.414" r="28.822"/>
		<g>
			<path style="fill:#397DEF;" d="M253.302,214.228l-21.754-0.229c-1.174-0.012-2.137,0.93-2.149,2.104l-0.229,21.754
				c-0.012,1.174,0.93,2.137,2.104,2.149l21.754,0.229c1.174,0.012,2.137-0.93,2.149-2.104l0.229-21.754
				C255.418,215.202,254.476,214.24,253.302,214.228z M244.319,226.834l-0.044,4.206c-0.012,1.12-0.929,2.018-2.049,2.006
				c-1.12-0.012-2.018-0.929-2.006-2.049l0.044-4.206c-0.81-0.625-1.335-1.6-1.323-2.703c0.02-1.867,1.549-3.364,3.415-3.344
				c1.867,0.02,3.364,1.549,3.344,3.415C245.687,225.262,245.142,226.226,244.319,226.834z"/>
			<path style="fill:#3E69F9;" d="M253.302,214.228l-21.754-0.229c-1.174-0.012-2.137,0.93-2.149,2.104l-0.028,2.653
				c0.012-1.174,0.975-2.117,2.149-2.104l21.754,0.229c1.174,0.012,2.117,0.975,2.104,2.149l0.028-2.653
				C255.418,215.202,254.476,214.24,253.302,214.228z"/>
			<path style="fill:none;stroke:#397DEF;stroke-width:4.4226;stroke-miterlimit:10;" d="M234.621,215.242l0.051-4.825
				c0.045-4.303,3.57-7.754,7.873-7.709l0,0c4.303,0.045,7.754,3.57,7.709,7.873l-0.051,4.825"/>
			<path style="fill:none;stroke:#3E69F9;stroke-width:4.4226;stroke-miterlimit:10;" d="M234.672,210.417
				c0.045-4.303,3.57-7.754,7.873-7.709l0,0"/>
		</g>
		
			<linearGradient id="SVGID_00000119090755623229554960000003756366895027076995_" gradientUnits="userSpaceOnUse" x1="238.4198" y1="185.2589" x2="175.6895" y2="247.3491" gradientTransform="matrix(0.9999 0.0105 -0.0105 0.9999 2.3028 -3.7196)">
			<stop  offset="0" style="stop-color:#FFFFFF"/>
			<stop  offset="1" style="stop-color:#FFFFFF;stop-opacity:0"/>
		</linearGradient>
		<polygon style="opacity:0.51;fill:url(#SVGID_00000119090755623229554960000003756366895027076995_);" points="218.21,182.02 
			168.116,231.069 167.656,274.743 167.764,274.744 261.991,182.481 		"/>
		
			<linearGradient id="SVGID_00000164505168930989656640000000923440366344250035_" gradientUnits="userSpaceOnUse" x1="262.7516" y1="209.8428" x2="200.0217" y2="271.9327" gradientTransform="matrix(0.9999 0.0105 -0.0105 0.9999 2.3028 -3.7196)">
			<stop  offset="0" style="stop-color:#FFFFFF"/>
			<stop  offset="1" style="stop-color:#FFFFFF;stop-opacity:0"/>
		</linearGradient>
		<polygon style="opacity:0.51;fill:url(#SVGID_00000164505168930989656640000000923440366344250035_);" points="222.606,261.562 
			302.93,182.913 275.738,182.626 195.121,261.562 		"/>
	</g>
	<g>
		<path style="fill:#72B6FF;" d="M417.559,172.158l-66.135-10.527c-3.782-0.602-6.359-4.156-5.757-7.937l11.43-71.806l79.83,12.707
			l-11.43,71.806C424.894,170.182,421.34,172.76,417.559,172.158z"/>
		
			<rect x="357.394" y="78.116" transform="matrix(0.9876 0.1572 -0.1572 0.9876 18.0262 -61.4999)" style="fill:#224799;" width="80.835" height="10.189"/>
		<path style="fill:#72B6FF;" d="M433.437,92.087l-4.862-0.774c-0.384-0.061-0.646-0.422-0.585-0.806l0.774-4.862
			c0.061-0.384,0.422-0.646,0.806-0.585l4.862,0.774c0.384,0.061,0.646,0.422,0.585,0.806l-0.774,4.862
			C434.182,91.886,433.821,92.148,433.437,92.087z"/>
		<g>
			
				<line style="fill:none;stroke:#FFFFFF;stroke-width:0.7849;stroke-linecap:round;stroke-miterlimit:10;" x1="433.177" y1="87.359" x2="429.83" y2="89.787"/>
			
				<line style="fill:none;stroke:#FFFFFF;stroke-width:0.7849;stroke-linecap:round;stroke-miterlimit:10;" x1="432.717" y1="90.246" x2="430.29" y2="86.9"/>
		</g>
		<g>
			<path style="fill:#FFFFFF;" d="M398.602,124.474c-1.387-0.221-2.456-1.213-2.849-2.467c-1.355,0.639-2.788,0.913-4.226,0.684
				c-1.438-0.229-2.715-0.934-3.805-1.962c-0.763,1.071-2.087,1.682-3.474,1.461c-4.47-0.712-8.67,2.335-9.382,6.805l-0.737,4.629
				c-0.251,1.578,0.824,3.061,2.402,3.312l24.826,3.952c1.578,0.251,3.061-0.824,3.312-2.402l0.737-4.629
				C406.119,129.386,403.072,125.185,398.602,124.474z"/>
			<path style="fill:#FFFFFF;" d="M392.096,119.115c4.417,0.703,9.063-5.417,9.9-10.673c0.837-5.256-2.066-10.087-6.483-10.79
				c-4.417-0.703-8.676,2.988-9.513,8.243C385.163,111.151,387.679,118.412,392.096,119.115z"/>
		</g>
		
			<rect x="360.276" y="144.256" transform="matrix(0.9876 0.1572 -0.1572 0.9876 27.7653 -57.3677)" style="fill:#FFFFFF;" width="32.573" height="5.186"/>
		
			<rect x="358.777" y="154.587" transform="matrix(0.9876 0.1572 -0.1572 0.9876 29.5134 -58.8081)" style="fill:#FFFFFF;" width="55.531" height="5.186"/>
	</g>
	<g>
		<path style="fill:#224799;" d="M116.496,80.93c-2.271,0.927-3.665,3.249-3.427,5.691c0.526,5.381,1.917,10.934,4.242,16.39
			c7.677,18.015,34.278,24.697,44.068,26.581c2.235,0.43,4.5-0.535,5.738-2.445c5.422-8.367,19.025-32.183,11.348-50.197
			c-2.281-5.353-5.253-10.123-8.686-14.179c-1.683-1.989-4.525-2.456-6.84-1.261c-7.38,3.81-14.881,4.653-22.479,3.129
			c-2.223-0.446-4.49,0.433-5.785,2.294C130.447,73.011,124.414,77.698,116.496,80.93z"/>
		<path style="fill:#1B55D4;" d="M136.762,65.139c-0.816,0.41-1.542,1.008-2.088,1.793c-4.227,6.079-10.26,10.766-18.179,13.998
			c-2.271,0.927-3.665,3.249-3.427,5.691c0.526,5.381,1.917,10.934,4.242,16.39c7.677,18.015,34.278,24.697,44.068,26.581
			c0.947,0.182,1.895,0.1,2.772-0.184L136.762,65.139z"/>
		<path style="fill:#72B6FF;" d="M139.005,69.509c0.102-0.043,0.269-0.086,0.485-0.043c7.94,1.592,15.647,0.83,22.908-2.264
			c0.935-0.398,1.876-0.841,2.798-1.317c0.021-0.011,0.043-0.021,0.065-0.031c0.239-0.102,0.578-0.115,0.758,0.097
			c3.215,3.798,5.878,8.148,7.915,12.929c6.844,16.061-6.651,38.955-10.95,45.589c-0.073,0.113-0.172,0.196-0.293,0.248
			c-0.121,0.052-0.25,0.065-0.382,0.04c-7.763-1.494-33.624-7.615-40.469-23.676c-2.076-4.871-3.379-9.897-3.872-14.939
			c-0.027-0.276,0.128-0.543,0.387-0.653c0.274-0.112,0.544-0.224,0.814-0.339c8.33-3.55,14.906-8.733,19.547-15.406
			C138.79,69.638,138.888,69.559,139.005,69.509 M137.075,64.979c-0.948,0.404-1.784,1.067-2.401,1.954
			c-4.094,5.887-9.882,10.468-17.435,13.687c-0.247,0.105-0.494,0.208-0.744,0.31c-0.026,0.011-0.053,0.022-0.078,0.033
			c-2.225,0.948-3.584,3.245-3.348,5.658c0.526,5.381,1.917,10.934,4.242,16.39c7.677,18.015,34.278,24.697,44.068,26.581
			c1.118,0.215,2.243,0.081,3.243-0.345c1-0.426,1.876-1.145,2.495-2.1c5.422-8.367,19.025-32.182,11.348-50.197
			c-2.281-5.353-5.253-10.123-8.686-14.179c-1.589-1.878-4.211-2.399-6.447-1.446c-0.133,0.056-0.264,0.118-0.393,0.185
			c-0.822,0.424-1.645,0.812-2.47,1.163c-6.582,2.805-13.258,3.32-20.01,1.966C139.294,64.405,138.117,64.535,137.075,64.979
			L137.075,64.979z"/>
		
			<polyline style="fill:none;stroke:#FFFFFF;stroke-width:4.1034;stroke-linecap:round;stroke-linejoin:round;stroke-miterlimit:10;" points="
			160.886,82.659 152.161,104.342 141.881,100.205 		"/>
	</g>
	<g>
		<path style="fill:#90B8F9;" d="M371.641,331.492c0.536-1.397,2.102-2.095,3.499-1.559l24.034,9.216l-1.261,3.288L371.641,331.492z
			"/>
		<path style="fill:#90B8F9;" d="M408.344,342.685l-10.163-3.897c-0.369-0.141-0.783,0.043-0.924,0.412l-1.046,2.729
			c-0.142,0.369,0.043,0.783,0.412,0.924l4,1.534c0.801,0.307,1.146,1.207,0.837,2.007c-0.002,0.005-0.004,0.01-0.006,0.015
			c-1.199,3.126,0.406,6.651,3.574,7.788c2.997,1.076,6.448-0.497,7.605-3.464c1.207-3.094-0.359-6.541-3.455-7.728
			C408.893,342.896,408.632,342.749,408.344,342.685z M404.769,347.681c0.482-1.257,1.897-1.888,3.154-1.406
			c1.257,0.482,1.888,1.897,1.406,3.154c-0.482,1.257-1.897,1.888-3.154,1.406C404.918,350.353,404.287,348.938,404.769,347.681z"/>
		<path style="fill:#FFFFFF;" d="M373.627,339.66c-1.496,0-2.709-1.213-2.709-2.709v-0.094l28.449-0.674v3.477H373.627z"/>
		<path style="fill:#FFFFFF;" d="M410.084,339.685c3.316,0,6.012-2.658,5.993-5.979c-0.018-3.184-2.677-5.888-5.861-5.957
			c-3.365-0.073-6.125,2.643-6.125,5.992c0,0.005,0,0.011,0,0.017c0.003,0.858-0.642,1.574-1.5,1.574h-4.284
			c-0.395,0-0.715,0.32-0.715,0.716v2.922c0,0.395,0.32,0.715,0.715,0.715h10.885C409.483,339.729,409.78,339.685,410.084,339.685z
			 M410.084,331.299c1.347,0,2.442,1.095,2.442,2.442s-1.095,2.442-2.442,2.442c-1.346,0-2.442-1.095-2.442-2.442
			S408.737,331.299,410.084,331.299z"/>
		<circle style="fill:#6F9EFE;" cx="391.596" cy="338.095" r="0.941"/>
	</g>
	<g>
		<path style="fill:#1CF7B3;" d="M298.22,128.403l-45.595-13.561c-1.684-0.501-3.455,0.458-3.956,2.142l-7.915,26.612
			c-0.501,1.684,0.458,3.455,2.142,3.956l4.792,1.425l-2.056,6.911c-0.275,0.923,0.639,1.756,1.533,1.396l12.103-4.864l29.223,8.692
			c1.684,0.501,3.455-0.458,3.956-2.142l7.915-26.612C300.863,130.675,299.904,128.904,298.22,128.403z"/>
		<g>
			
				<line style="fill:none;stroke:#FFFFFF;stroke-width:1.7352;stroke-linecap:round;stroke-miterlimit:10;" x1="271.151" y1="135.984" x2="269.749" y2="140.697"/>
			
				<line style="fill:none;stroke:#FFFFFF;stroke-width:1.7352;stroke-linecap:round;stroke-miterlimit:10;" x1="268.76" y1="136.556" x2="272.14" y2="140.126"/>
			
				<line style="fill:none;stroke:#FFFFFF;stroke-width:1.7352;stroke-linecap:round;stroke-miterlimit:10;" x1="268.059" y1="138.912" x2="272.841" y2="137.77"/>
		</g>
		<g>
			
				<line style="fill:none;stroke:#FFFFFF;stroke-width:1.7352;stroke-linecap:round;stroke-miterlimit:10;" x1="260.34" y1="132.769" x2="258.938" y2="137.481"/>
			
				<line style="fill:none;stroke:#FFFFFF;stroke-width:1.7352;stroke-linecap:round;stroke-miterlimit:10;" x1="257.949" y1="133.34" x2="261.329" y2="136.91"/>
			
				<line style="fill:none;stroke:#FFFFFF;stroke-width:1.7352;stroke-linecap:round;stroke-miterlimit:10;" x1="257.248" y1="135.696" x2="262.03" y2="134.554"/>
		</g>
		<g>
			
				<line style="fill:none;stroke:#FFFFFF;stroke-width:1.7352;stroke-linecap:round;stroke-miterlimit:10;" x1="282.794" y1="139.447" x2="281.392" y2="144.16"/>
			
				<line style="fill:none;stroke:#FFFFFF;stroke-width:1.7352;stroke-linecap:round;stroke-miterlimit:10;" x1="280.403" y1="140.018" x2="283.783" y2="143.589"/>
			
				<line style="fill:none;stroke:#FFFFFF;stroke-width:1.7352;stroke-linecap:round;stroke-miterlimit:10;" x1="279.702" y1="142.375" x2="284.484" y2="141.232"/>
		</g>
	</g>
	<g>
		<polygon style="opacity:0.51;" points="167.756,220.926 166.027,229.902 185.982,229.902 185.982,237.207 188.941,237.207 
			188.941,234.905 197.227,234.905 197.227,237.207 200.334,237.207 200.334,229.902 205.806,229.902 205.806,220.926 		"/>
		<polygon style="fill:#8AF48A;" points="185.982,223.342 185.982,235.135 188.941,235.135 188.941,232.834 197.227,232.834 
			197.227,235.135 200.334,235.135 200.334,223.342 		"/>
		<g>
			<rect x="149.642" y="218.854" style="fill:#8DFFD6;" width="56.164" height="8.976"/>
		</g>
		<g>
			<rect x="149.642" y="218.854" style="fill:#8AF48A;" width="10.305" height="8.976"/>
		</g>
		<g>
			<path style="fill:#8DFFD6;" d="M145.97,242.558h-12.333c-3.929,0-7.125-3.196-7.125-7.125v-24.182
				c0-3.929,3.196-7.125,7.125-7.125h12.333c3.929,0,7.125,3.196,7.125,7.125v24.182
				C153.094,239.362,149.898,242.558,145.97,242.558z M133.636,211.031c-0.121,0-0.22,0.099-0.22,0.22v24.182
				c0,0.121,0.099,0.22,0.22,0.22h12.333c0.121,0,0.22-0.099,0.22-0.22v-24.182c0-0.121-0.099-0.22-0.22-0.22H133.636z"/>
		</g>
	</g>
	<g>
		
			<ellipse transform="matrix(0.9268 -0.3755 0.3755 0.9268 -58.2556 42.3411)" style="fill:none;stroke:#39FEC6;stroke-width:1.8757;stroke-miterlimit:10;" cx="79.5" cy="170.628" rx="31.142" ry="31.142"/>
		
			<ellipse style="fill:none;stroke:#39FEC6;stroke-width:1.8757;stroke-miterlimit:10;" cx="79.5" cy="170.628" rx="17.173" ry="31.142"/>
		
			<line style="fill:none;stroke:#39FEC6;stroke-width:1.8757;stroke-miterlimit:10;" x1="79.5" y1="139.486" x2="79.5" y2="201.77"/>
		
			<line style="fill:none;stroke:#39FEC6;stroke-width:1.8757;stroke-miterlimit:10;" x1="110.642" y1="170.628" x2="48.359" y2="170.628"/>
		
			<line style="fill:none;stroke:#39FEC6;stroke-width:1.8757;stroke-miterlimit:10;" x1="53.619" y1="153.306" x2="105.383" y2="153.306"/>
		
			<line style="fill:none;stroke:#39FEC6;stroke-width:1.8757;stroke-miterlimit:10;" x1="53.619" y1="187.376" x2="105.383" y2="187.376"/>
	</g>
	<g>
		
			<rect x="311.471" y="347.509" transform="matrix(0.9933 -0.1153 0.1153 0.9933 -38.5272 38.9144)" style="fill:#FFFFFF;" width="11.344" height="10.016"/>
		
			<rect x="320.461" y="346.989" transform="matrix(0.9933 -0.1153 0.1153 0.9933 -38.4429 39.4337)" style="fill:#3B85F7;" width="2.324" height="10.016"/>
		
			<rect x="321.345" y="343.501" transform="matrix(0.9933 -0.1153 0.1153 0.9933 -38.1047 41.3363)" style="fill:#2653E3;" width="33.867" height="13.125"/>
		<g>
			
				<rect x="315.065" y="349.718" transform="matrix(0.9933 -0.1153 0.1153 0.9933 -38.3133 38.7626)" style="fill:#3B85F7;" width="1.854" height="1.854"/>
			
				<rect x="315.525" y="353.676" transform="matrix(0.9933 -0.1153 0.1153 0.9933 -38.7667 38.8422)" style="fill:#3B85F7;" width="1.854" height="1.854"/>
		</g>
	</g>
	<g>
		<path style="fill:#2653E3;" d="M251.742,352.913c-1.838,0.505-3.488,1.35-4.916,2.439c-4.891-6.772-13.638-10.149-22.167-7.806
			c-9.669,2.656-15.824,11.775-15.091,21.412c-5.802,2.263-9.073,8.591-7.387,14.729c1.801,6.559,8.579,10.415,15.137,8.614
			l42.068-11.555c7.686-2.111,12.205-10.053,10.094-17.739C267.37,355.321,259.428,350.802,251.742,352.913z"/>
		<path style="fill:#FFFFFF;" d="M238.92,396.926l-2.887,0.793l-5.016-18.262c-0.273-0.995-1.301-1.579-2.296-1.306l-6.688,1.837
			c-0.995,0.273-1.579,1.301-1.306,2.296l5.016,18.262l-2.887,0.793c-1.162,0.319-1.358,1.884-0.311,2.48l10.237,5.826
			c0.649,0.37,1.475,0.143,1.845-0.507l5.826-10.237C241.051,397.852,240.083,396.607,238.92,396.926z"/>
		<path style="fill:#FFFFFF;" d="M255.805,382.155l-2.887,0.793l5.016,18.262c0.273,0.995-0.312,2.022-1.306,2.296l-6.688,1.837
			c-0.995,0.273-2.022-0.312-2.296-1.306l-5.016-18.262l-2.887,0.793c-1.162,0.319-2.13-0.926-1.534-1.974l5.826-10.238
			c0.369-0.649,1.196-0.876,1.845-0.507l10.237,5.826C257.164,380.271,256.968,381.836,255.805,382.155z"/>
	</g>
	<g>
		<g>
			<path style="fill:#FFFFFF;" d="M223.446,341.697c-1.295,0-2.345-1.05-2.345-2.345c0-9.308-7.573-16.881-16.881-16.881
				c-1.295,0-2.345-1.05-2.345-2.345c0-1.295,1.05-2.345,2.345-2.345c11.894,0,21.57,9.676,21.57,21.57
				C225.79,340.647,224.741,341.697,223.446,341.697z"/>
		</g>
		<g>
			<path style="fill:#FFFFFF;" d="M214.493,341.697c-1.295,0-2.345-1.05-2.345-2.345c0-4.371-3.557-7.929-7.928-7.929
				c-1.295,0-2.345-1.05-2.345-2.345c0-1.295,1.05-2.345,2.345-2.345c6.957,0,12.617,5.66,12.617,12.618
				C216.837,340.647,215.788,341.697,214.493,341.697z"/>
		</g>
		<g>
			<path style="fill:#FFFFFF;" d="M204.22,342.791c-1.899,0-3.439-1.54-3.439-3.439s1.54-3.439,3.439-3.439
				c1.899,0,3.439,1.539,3.439,3.439S206.119,342.791,204.22,342.791z"/>
		</g>
	</g>
	<g>
		
			<line style="fill:none;stroke:#39FEC6;stroke-width:1.8757;stroke-miterlimit:10;" x1="84.713" y1="289.975" x2="176.696" y2="289.975"/>
		
			<line style="fill:none;stroke:#39FEC6;stroke-width:1.8757;stroke-miterlimit:10;" x1="151.091" y1="256.007" x2="151.091" y2="315.482"/>
		<g>
			<path style="fill:#397DEF;" d="M80.523,288.598c0.759,0,1.377,0.618,1.377,1.377c0,0.759-0.618,1.377-1.377,1.377
				c-0.759,0-1.377-0.618-1.377-1.377C79.146,289.216,79.764,288.598,80.523,288.598 M80.523,285.785c-2.314,0-4.19,1.876-4.19,4.19
				s1.876,4.19,4.19,4.19c2.314,0,4.19-1.876,4.19-4.19S82.837,285.785,80.523,285.785L80.523,285.785z"/>
		</g>
		<g>
			<path style="fill:#397DEF;" d="M151.091,316.906c0.759,0,1.377,0.618,1.377,1.377c0,0.759-0.618,1.377-1.377,1.377
				c-0.759,0-1.377-0.618-1.377-1.377C149.714,317.523,150.332,316.906,151.091,316.906 M151.091,314.092
				c-2.314,0-4.19,1.876-4.19,4.19c0,2.314,1.876,4.19,4.19,4.19c2.314,0,4.19-1.876,4.19-4.19
				C155.281,315.968,153.405,314.092,151.091,314.092L151.091,314.092z"/>
		</g>
		<g>
			<path style="fill:#397DEF;" d="M151.091,252.052c0.759,0,1.377,0.618,1.377,1.377c0,0.759-0.618,1.377-1.377,1.377
				c-0.759,0-1.377-0.618-1.377-1.377C149.714,252.669,150.332,252.052,151.091,252.052 M151.091,249.238
				c-2.314,0-4.19,1.876-4.19,4.19c0,2.314,1.876,4.19,4.19,4.19c2.314,0,4.19-1.876,4.19-4.19
				C155.281,251.114,153.405,249.238,151.091,249.238L151.091,249.238z"/>
		</g>
		<g>
			<path style="fill:#397DEF;" d="M179.383,288.598c0.759,0,1.377,0.618,1.377,1.377c0,0.759-0.618,1.377-1.377,1.377
				c-0.759,0-1.377-0.618-1.377-1.377C178.006,289.216,178.624,288.598,179.383,288.598 M179.383,285.785
				c-2.314,0-4.19,1.876-4.19,4.19s1.876,4.19,4.19,4.19c2.314,0,4.19-1.876,4.19-4.19S181.697,285.785,179.383,285.785
				L179.383,285.785z"/>
		</g>
	</g>
	<g>
		
			<line style="fill:none;stroke:#39FEC6;stroke-width:1.8757;stroke-miterlimit:10;" x1="351.633" y1="227.499" x2="436.996" y2="227.499"/>
		
			<line style="fill:none;stroke:#39FEC6;stroke-width:1.8757;stroke-miterlimit:10;" x1="415.632" y1="209.434" x2="415.632" y2="267.805"/>
		
			<line style="fill:none;stroke:#39FEC6;stroke-width:1.8757;stroke-miterlimit:10;" x1="369.003" y1="227.563" x2="369.003" y2="242.643"/>
		<g>
			<path style="fill:#397DEF;" d="M369.003,243.988c0.759,0,1.377,0.618,1.377,1.377c0,0.759-0.618,1.377-1.377,1.377
				c-0.759,0-1.377-0.618-1.377-1.377C367.626,244.606,368.243,243.988,369.003,243.988 M369.003,241.175
				c-2.314,0-4.19,1.876-4.19,4.19c0,2.314,1.876,4.19,4.19,4.19s4.19-1.876,4.19-4.19
				C373.193,243.051,371.317,241.175,369.003,241.175L369.003,241.175z"/>
		</g>
		<g>
			<path style="fill:#397DEF;" d="M415.632,205.693c0.759,0,1.377,0.618,1.377,1.377s-0.618,1.377-1.377,1.377
				c-0.759,0-1.377-0.618-1.377-1.377S414.873,205.693,415.632,205.693 M415.632,202.879c-2.314,0-4.19,1.876-4.19,4.19
				c0,2.314,1.876,4.19,4.19,4.19c2.314,0,4.19-1.876,4.19-4.19C419.822,204.755,417.946,202.879,415.632,202.879L415.632,202.879z"
				/>
		</g>
		<g>
			<path style="fill:#397DEF;" d="M415.632,268.156c0.759,0,1.377,0.618,1.377,1.377c0,0.759-0.618,1.377-1.377,1.377
				c-0.759,0-1.377-0.618-1.377-1.377C414.255,268.774,414.873,268.156,415.632,268.156 M415.632,265.342
				c-2.314,0-4.19,1.876-4.19,4.19c0,2.314,1.876,4.19,4.19,4.19c2.314,0,4.19-1.876,4.19-4.19
				C419.822,267.219,417.946,265.342,415.632,265.342L415.632,265.342z"/>
		</g>
		<g>
			<path style="fill:#397DEF;" d="M348.741,226.122c0.759,0,1.377,0.618,1.377,1.377c0,0.759-0.618,1.377-1.377,1.377
				c-0.759,0-1.377-0.618-1.377-1.377C347.364,226.74,347.982,226.122,348.741,226.122 M348.741,223.309
				c-2.314,0-4.19,1.876-4.19,4.19c0,2.314,1.876,4.19,4.19,4.19c2.314,0,4.19-1.876,4.19-4.19
				C352.931,225.184,351.055,223.309,348.741,223.309L348.741,223.309z"/>
		</g>
		<g>
			<path style="fill:#397DEF;" d="M440.024,226.122c0.759,0,1.377,0.618,1.377,1.377c0,0.759-0.618,1.377-1.377,1.377
				c-0.759,0-1.377-0.618-1.377-1.377C438.647,226.74,439.265,226.122,440.024,226.122 M440.024,223.309
				c-2.314,0-4.19,1.876-4.19,4.19c0,2.314,1.876,4.19,4.19,4.19c2.314,0,4.19-1.876,4.19-4.19
				C444.215,225.184,442.338,223.309,440.024,223.309L440.024,223.309z"/>
		</g>
	</g>
	<g>
		
			<line style="fill:none;stroke:#39FEC6;stroke-width:1.8757;stroke-miterlimit:10;" x1="223.667" y1="99.061" x2="328.675" y2="99.061"/>
		
			<line style="fill:none;stroke:#39FEC6;stroke-width:1.8757;stroke-miterlimit:10;" x1="241.16" y1="67.387" x2="241.16" y2="99.061"/>
		
			<line style="fill:none;stroke:#39FEC6;stroke-width:1.8757;stroke-miterlimit:10;" x1="309.946" y1="99.061" x2="309.946" y2="133.384"/>
		<g>
			<path style="fill:#397DEF;" d="M241.16,64.574c0.759,0,1.377,0.618,1.377,1.377s-0.618,1.377-1.377,1.377
				c-0.759,0-1.377-0.618-1.377-1.377S240.401,64.574,241.16,64.574 M241.16,61.76c-2.314,0-4.19,1.876-4.19,4.19
				c0,2.314,1.876,4.19,4.19,4.19c2.314,0,4.19-1.876,4.19-4.19C245.351,63.636,243.475,61.76,241.16,61.76L241.16,61.76z"/>
		</g>
		<g>
			<path style="fill:#397DEF;" d="M309.946,134.66c0.759,0,1.377,0.618,1.377,1.377s-0.618,1.377-1.377,1.377
				c-0.759,0-1.377-0.618-1.377-1.377S309.187,134.66,309.946,134.66 M309.946,131.847c-2.314,0-4.19,1.876-4.19,4.19
				c0,2.314,1.876,4.19,4.19,4.19c2.314,0,4.19-1.876,4.19-4.19C314.136,133.723,312.26,131.847,309.946,131.847L309.946,131.847z"
				/>
		</g>
		<g>
			<path style="fill:#397DEF;" d="M330.891,97.685c0.759,0,1.377,0.618,1.377,1.377c0,0.759-0.618,1.377-1.377,1.377
				c-0.759,0-1.377-0.618-1.377-1.377C329.514,98.302,330.132,97.685,330.891,97.685 M330.891,94.871c-2.314,0-4.19,1.876-4.19,4.19
				c0,2.314,1.876,4.19,4.19,4.19c2.314,0,4.19-1.876,4.19-4.19C335.081,96.747,333.205,94.871,330.891,94.871L330.891,94.871z"/>
		</g>
		<g>
			<path style="fill:#397DEF;" d="M220.91,97.685c0.759,0,1.377,0.618,1.377,1.377c0,0.759-0.618,1.377-1.377,1.377
				s-1.377-0.618-1.377-1.377C219.533,98.302,220.151,97.685,220.91,97.685 M220.91,94.871c-2.314,0-4.19,1.876-4.19,4.19
				c0,2.314,1.876,4.19,4.19,4.19c2.314,0,4.19-1.876,4.19-4.19C225.1,96.747,223.224,94.871,220.91,94.871L220.91,94.871z"/>
		</g>
	</g>
	<g>
		<path style="fill:#FFFFFF;" d="M224.228,149.512c0,0-8.992,11.33-20.085,11.33c-11.093,0-20.085-11.33-20.085-11.33
			s8.992-11.33,20.085-11.33C215.236,138.182,224.228,149.512,224.228,149.512z"/>
		<circle style="fill:#1CF7B3;" cx="204.144" cy="149.512" r="10.294"/>
		<path style="fill:#224799;" d="M207.832,149.512c0,2.037-1.652,3.689-3.689,3.689c-2.037,0-3.689-1.652-3.689-3.689
			c0-2.037,1.652-3.689,3.689-3.689C206.181,145.823,207.832,147.475,207.832,149.512z"/>
		<path style="fill:#FFFFFF;" d="M203.823,146.614c0,1.205-0.977,2.183-2.183,2.183s-2.183-0.977-2.183-2.183
			c0-1.205,0.977-2.182,2.183-2.182S203.823,145.408,203.823,146.614z"/>
	</g>
	<g>
		<path style="fill:none;stroke:#FFFFFF;stroke-width:2.8135;stroke-miterlimit:10;" d="M139.385,382.78v-7.735
			c0-3.191,2.587-5.777,5.777-5.777h17.475c3.191,0,5.777,2.586,5.777,5.777v3.89"/>
		<path style="fill:#224799;" d="M144.06,382.455v-5.037h-9.349v5.037c-6.222,1.98-10.731,7.803-10.731,14.681
			c0,8.508,6.897,15.405,15.405,15.405c8.508,0,15.405-6.897,15.405-15.405C154.791,390.258,150.282,384.435,144.06,382.455z"/>
		<g>
			
				<line style="fill:none;stroke:#FFFFFF;stroke-width:1.4147;stroke-linecap:round;stroke-miterlimit:10;" x1="168.414" y1="389.625" x2="168.414" y2="394.65"/>
			
				<line style="fill:none;stroke:#FFFFFF;stroke-width:1.4147;stroke-linecap:round;stroke-miterlimit:10;" x1="160.725" y1="381.332" x2="165.077" y2="383.844"/>
			
				<line style="fill:none;stroke:#FFFFFF;stroke-width:1.4147;stroke-linecap:round;stroke-miterlimit:10;" x1="171.752" y1="387.698" x2="176.103" y2="390.21"/>
			
				<line style="fill:none;stroke:#FFFFFF;stroke-width:1.4147;stroke-linecap:round;stroke-miterlimit:10;" x1="160.725" y1="390.21" x2="165.077" y2="387.698"/>
			
				<line style="fill:none;stroke:#FFFFFF;stroke-width:1.4147;stroke-linecap:round;stroke-miterlimit:10;" x1="171.752" y1="383.844" x2="176.103" y2="381.332"/>
		</g>
		<path style="fill:#1B55D4;" d="M131.909,383.844c-0.113,0-0.223,0.015-0.334,0.02c-4,2.359-6.832,6.471-7.454,11.281
			c0.686,4.429,3.909,7.784,7.788,7.784c4.379,0,7.928-4.272,7.928-9.543C139.837,388.116,136.287,383.844,131.909,383.844z"/>
	</g>
	<g>
		<path style="fill:#FFFFFF;" d="M147.195,145.432l0.49,0.896c1.194,2.184,2.99,3.979,5.174,5.174l0.896,0.49
			c0.866,0.474,0.866,1.718,0,2.192l-0.896,0.49c-2.184,1.194-3.979,2.99-5.174,5.174l-0.49,0.896c-0.474,0.866-1.718,0.866-2.192,0
			l-0.49-0.896c-1.194-2.184-2.99-3.979-5.174-5.174l-0.896-0.49c-0.866-0.474-0.866-1.718,0-2.192l0.896-0.49
			c2.184-1.194,3.979-2.99,5.174-5.174l0.49-0.896C145.477,144.566,146.721,144.566,147.195,145.432z"/>
		<path style="fill:#FFFFFF;" d="M160.837,160.706l0.292,0.534c0.711,1.3,1.781,2.37,3.081,3.081l0.534,0.292
			c0.516,0.282,0.516,1.023,0,1.305l-0.534,0.292c-1.3,0.711-2.37,1.78-3.081,3.081l-0.292,0.534c-0.282,0.516-1.023,0.516-1.305,0
			l-0.292-0.534c-0.711-1.3-1.78-2.37-3.081-3.081l-0.534-0.292c-0.516-0.282-0.516-1.023,0-1.305l0.534-0.292
			c1.3-0.711,2.37-1.781,3.081-3.081l0.292-0.534C159.814,160.19,160.555,160.19,160.837,160.706z"/>
		<path style="fill:#FFFFFF;" d="M144.487,177.945l0.174,0.318c0.423,0.774,1.06,1.411,1.835,1.835l0.318,0.174
			c0.307,0.168,0.307,0.609,0,0.777l-0.318,0.174c-0.774,0.423-1.411,1.06-1.835,1.835l-0.174,0.318
			c-0.168,0.307-0.609,0.307-0.777,0l-0.174-0.318c-0.423-0.774-1.06-1.411-1.835-1.835l-0.318-0.174
			c-0.307-0.168-0.307-0.609,0-0.777l0.318-0.174c0.774-0.424,1.411-1.06,1.835-1.835l0.174-0.318
			C143.878,177.637,144.319,177.637,144.487,177.945z"/>
		<path style="fill:#FFFFFF;" d="M204.413,57.354l0.393,0.718c0.957,1.749,2.395,3.188,4.145,4.145l0.718,0.393
			c0.694,0.38,0.694,1.376,0,1.756l-0.718,0.393c-1.749,0.957-3.188,2.395-4.145,4.145l-0.393,0.718
			c-0.38,0.694-1.376,0.694-1.756,0l-0.393-0.718c-0.957-1.749-2.395-3.188-4.145-4.145l-0.718-0.393
			c-0.694-0.38-0.694-1.376,0-1.756l0.718-0.393c1.749-0.957,3.188-2.395,4.145-4.145l0.393-0.718
			C203.037,56.659,204.034,56.659,204.413,57.354z"/>
		<path style="fill:#FFFFFF;" d="M288.083,300.56l0.393,0.718c0.957,1.749,2.395,3.188,4.145,4.145l0.718,0.393
			c0.694,0.38,0.694,1.376,0,1.756l-0.718,0.393c-1.749,0.957-3.188,2.395-4.145,4.145l-0.393,0.718
			c-0.38,0.694-1.376,0.694-1.756,0l-0.393-0.718c-0.957-1.75-2.395-3.188-4.145-4.145l-0.718-0.393
			c-0.694-0.38-0.694-1.376,0-1.756l0.718-0.393c1.749-0.957,3.188-2.395,4.145-4.145l0.393-0.718
			C286.706,299.866,287.703,299.866,288.083,300.56z"/>
		<path style="fill:#FFFFFF;" d="M305.383,311.939l0.234,0.428c0.57,1.042,1.426,1.898,2.468,2.468l0.428,0.234
			c0.413,0.226,0.413,0.82,0,1.046l-0.428,0.234c-1.042,0.57-1.898,1.426-2.468,2.468l-0.234,0.428c-0.226,0.413-0.82,0.413-1.046,0
			l-0.234-0.428c-0.57-1.042-1.426-1.898-2.468-2.468l-0.428-0.234c-0.413-0.226-0.413-0.82,0-1.046l0.428-0.234
			c1.042-0.57,1.898-1.426,2.468-2.468l0.234-0.428C304.563,311.525,305.157,311.525,305.383,311.939z"/>
		<path style="fill:#FFFFFF;" d="M283.278,324.234l0.234,0.428c0.57,1.042,1.426,1.898,2.468,2.468l0.428,0.234
			c0.413,0.226,0.413,0.819,0,1.046l-0.428,0.234c-1.042,0.57-1.898,1.426-2.468,2.468l-0.234,0.428
			c-0.226,0.413-0.82,0.413-1.046,0l-0.234-0.428c-0.57-1.042-1.426-1.898-2.468-2.468l-0.428-0.234
			c-0.413-0.226-0.413-0.82,0-1.046l0.428-0.234c1.042-0.57,1.898-1.426,2.468-2.468l0.234-0.428
			C282.458,323.82,283.052,323.82,283.278,324.234z"/>
		<path style="fill:#FFFFFF;" d="M214.738,74.024l0.234,0.428c0.57,1.042,1.426,1.898,2.468,2.468l0.428,0.234
			c0.413,0.226,0.413,0.82,0,1.046l-0.428,0.234c-1.042,0.57-1.898,1.426-2.468,2.468l-0.234,0.428c-0.226,0.413-0.82,0.413-1.046,0
			l-0.234-0.428c-0.57-1.042-1.426-1.898-2.468-2.468l-0.428-0.234c-0.413-0.226-0.413-0.82,0-1.046l0.428-0.234
			c1.042-0.57,1.898-1.426,2.468-2.468l0.234-0.428C213.919,73.611,214.512,73.611,214.738,74.024z"/>
		<path style="fill:#FFFFFF;" d="M204.058,91.623l0.234,0.428c0.57,1.042,1.426,1.898,2.468,2.468l0.428,0.234
			c0.413,0.226,0.413,0.82,0,1.046l-0.428,0.234c-1.042,0.57-1.898,1.426-2.468,2.468l-0.234,0.428c-0.226,0.413-0.82,0.413-1.046,0
			l-0.234-0.428c-0.57-1.042-1.426-1.898-2.468-2.468l-0.428-0.234c-0.413-0.226-0.413-0.82,0-1.046l0.428-0.234
			c1.042-0.57,1.898-1.426,2.468-2.468l0.234-0.428C203.239,91.21,203.832,91.21,204.058,91.623z"/>
		<path style="fill:#FFFFFF;" d="M331.014,157.907l0.292,0.534c0.711,1.3,1.78,2.37,3.081,3.081l0.534,0.292
			c0.516,0.282,0.516,1.023,0,1.305l-0.534,0.292c-1.3,0.711-2.37,1.78-3.081,3.081l-0.292,0.534c-0.282,0.516-1.023,0.516-1.305,0
			l-0.292-0.534c-0.711-1.3-1.78-2.37-3.081-3.081l-0.534-0.292c-0.516-0.282-0.516-1.023,0-1.305l0.534-0.292
			c1.3-0.711,2.37-1.78,3.081-3.081l0.292-0.534C329.991,157.391,330.732,157.391,331.014,157.907z"/>
		<path style="fill:#FFFFFF;" d="M314.664,175.145l0.174,0.318c0.423,0.774,1.06,1.411,1.834,1.835l0.318,0.174
			c0.307,0.168,0.307,0.609,0,0.777l-0.318,0.174c-0.774,0.423-1.411,1.06-1.834,1.835l-0.174,0.318
			c-0.168,0.307-0.609,0.307-0.777,0l-0.174-0.318c-0.424-0.774-1.06-1.411-1.835-1.835l-0.318-0.174
			c-0.307-0.168-0.307-0.609,0-0.777l0.318-0.174c0.774-0.424,1.411-1.06,1.835-1.835l0.174-0.318
			C314.055,174.838,314.496,174.838,314.664,175.145z"/>
	</g>
</g>
<g id="DESIGNED_BY_FREEPIK">
	<g>
		<g id="XMLID_1_">
			<g id="XMLID_42_">
				<path id="XMLID_50_" style="fill:#A5B7C6;" d="M260.104,465.465c-0.432,0.443-0.803,0.931-1.108,1.453l-0.465-0.241
					c-0.067-0.298-0.349-0.503-0.659-0.466c-0.331,0.039-0.568,0.339-0.529,0.67c0.039,0.331,0.339,0.568,0.67,0.529
					c0.066-0.008,0.127-0.026,0.184-0.052l0.451,0.234c-0.251,0.554-0.433,1.139-0.539,1.744l0.746,0.132
					c0.23-1.306,0.85-2.507,1.792-3.473L260.104,465.465z"/>
				<path id="XMLID_49_" style="fill:#A5B7C6;" d="M265.592,463.163c-0.171,0-0.341,0.006-0.51,0.017l-0.074-0.626
					c0.188-0.149,0.296-0.389,0.266-0.645c-0.046-0.393-0.402-0.674-0.795-0.628c-0.393,0.046-0.674,0.402-0.628,0.795
					c0.03,0.254,0.189,0.461,0.404,0.564l0.074,0.624c-0.714,0.116-1.403,0.332-2.06,0.646l0.327,0.684
					c0.934-0.447,1.942-0.673,2.995-0.673c0.496,0,0.993,0.053,1.475,0.158l0.161-0.741
					C266.692,463.222,266.142,463.163,265.592,463.163z"/>
				<path id="XMLID_48_" style="fill:#A5B7C6;" d="M272.194,465.711c0.331-0.04,0.566-0.341,0.526-0.672
					c-0.04-0.331-0.341-0.566-0.672-0.526c-0.309,0.038-0.535,0.304-0.53,0.609l-0.416,0.363c-0.418-0.43-0.889-0.813-1.408-1.139
					l-0.404,0.641c1.134,0.715,2.021,1.726,2.563,2.925l0.69-0.313c-0.251-0.554-0.568-1.072-0.942-1.545l0.402-0.351
					C272.065,465.716,272.129,465.719,272.194,465.711z"/>
				<path id="XMLID_47_" style="fill:#A5B7C6;" d="M265.044,473.372c-0.386,0.023-0.775,0.035-1.157,0.035
					c-0.88,0-1.733-0.061-2.478-0.179c-0.39-0.062-0.846-0.155-1.27-0.292c1.046,1.861,3.069,3.125,5.388,3.125
					c2.855,0,5.262-1.916,5.95-4.504c-0.682,0.449-1.505,0.825-2.459,1.123C267.839,473.047,266.463,473.286,265.044,473.372z"/>
				<path id="XMLID_43_" style="fill:#A5B7C6;" d="M265.592,464.68c-3.352,0-6.08,2.666-6.08,5.943c0,0.426,0.046,0.849,0.137,1.261
					c0.673,0.483,2.706,0.89,5.348,0.731c2.879-0.173,5.297-0.957,6.672-2.159c-0.006-0.195-0.021-0.39-0.045-0.582
					C271.244,466.913,268.65,464.68,265.592,464.68z M263.432,471.194c-1.02,0-1.85-0.83-1.85-1.85c0-1.02,0.83-1.85,1.85-1.85
					c1.02,0,1.85,0.83,1.85,1.85C265.282,470.365,264.452,471.194,263.432,471.194z M268.17,470.286c-0.75,0-1.36-0.61-1.36-1.36
					s0.61-1.361,1.36-1.361c0.75,0,1.361,0.61,1.361,1.361S268.92,470.286,268.17,470.286z"/>
			</g>
			<path id="XMLID_40_" style="fill:#A5B7C6;" d="M281.595,466.547c-0.295-0.116-0.805-0.309-1.382-0.237
				c-0.551,0.069-0.844,0.341-0.844,1.007v0.866h2.228v1.717h-2.228v5.455h-1.932v-5.455h-1.34v-1.717h1.34v-0.888
				c0-1.68,0.896-2.783,2.568-2.783c0.643,0,1.157,0.122,1.59,0.308L281.595,466.547z"/>
			<path id="XMLID_334_" style="fill:#A5B7C6;" d="M286.298,469.879c-0.177-0.03-0.358-0.046-0.526-0.046
				c-0.895,0-1.51,0.548-1.51,1.614v3.908h-1.932v-7.172h1.873v0.785c0.451-0.673,1.14-0.977,2.021-0.977
				c0.414,0,0.848,0.128,1.094,0.337L286.298,469.879z"/>
			<path id="XMLID_38_" style="fill:#A5B7C6;" d="M293.965,471.757c0,0.222-0.015,0.489-0.037,0.651h-5.085
				c0.207,1.036,0.933,1.488,1.843,1.488c0.622,0,1.295-0.252,1.813-0.688l1.133,1.243c-0.814,0.748-1.85,1.088-3.057,1.088
				c-2.198,0-3.723-1.495-3.723-3.753c0-2.258,1.48-3.797,3.627-3.797C292.544,467.99,293.958,469.522,293.965,471.757z
				 M288.851,471.091h3.175c-0.177-0.918-0.733-1.436-1.562-1.436C289.554,469.655,289.021,470.203,288.851,471.091z"/>
			<path id="XMLID_25_" style="fill:#A5B7C6;" d="M301.618,471.757c0,0.222-0.015,0.489-0.037,0.651h-5.085
				c0.207,1.036,0.932,1.488,1.843,1.488c0.622,0,1.295-0.252,1.814-0.688l1.132,1.243c-0.814,0.748-1.85,1.088-3.057,1.088
				c-2.198,0-3.723-1.495-3.723-3.753c0-2.258,1.48-3.797,3.627-3.797C300.197,467.99,301.611,469.522,301.618,471.757z
				 M296.504,471.091h3.175c-0.178-0.918-0.733-1.436-1.562-1.436C297.207,469.655,296.674,470.203,296.504,471.091z"/>
			<path id="XMLID_22_" style="fill:#A5B7C6;" d="M309.964,471.764c0,2.154-1.495,3.775-3.471,3.775
				c-0.962,0-1.643-0.378-2.109-0.933v3.708h-1.924v-10.133h1.887v0.792c0.466-0.585,1.155-0.984,2.139-0.984
				C308.469,467.99,309.964,469.61,309.964,471.764z M304.287,471.764c0,1.132,0.747,1.976,1.843,1.976
				c1.14,0,1.85-0.881,1.85-1.976c0-1.095-0.711-1.976-1.85-1.976C305.035,469.788,304.287,470.632,304.287,471.764z"/>
			<path id="XMLID_17_" style="fill:#A5B7C6;" d="M313.067,465.836c0,0.696-0.54,1.229-1.236,1.229
				c-0.696,0-1.229-0.533-1.229-1.229c0-0.696,0.533-1.243,1.229-1.243C312.527,464.592,313.067,465.14,313.067,465.836z
				 M312.809,475.354h-1.932v-7.172h1.932V475.354z"/>
			<path id="XMLID_320_" style="fill:#A5B7C6;" d="M316.032,470.736l2.702-2.554h2.368l-3.479,3.375l3.501,3.797h-2.376
				l-2.716-2.901v2.901H314.1v-10.658h1.932V470.736z"/>
		</g>
		<g>
			<path style="fill:#A5B7C6;" d="M184.412,475.289v-1.055c-0.527,0.718-1.391,1.23-2.387,1.23c-1.846,0-3.149-1.406-3.149-3.706
				c0-2.256,1.289-3.721,3.149-3.721c0.952,0,1.816,0.469,2.387,1.245v-3.765h1.099v9.77H184.412z M184.412,473.37v-3.208
				c-0.395-0.615-1.245-1.143-2.124-1.143c-1.421,0-2.27,1.172-2.27,2.739c0,1.567,0.85,2.724,2.27,2.724
				C183.168,474.483,184.017,473.986,184.412,473.37z"/>
			<path style="fill:#A5B7C6;" d="M186.932,471.744c0-2.051,1.465-3.706,3.486-3.706c2.139,0,3.398,1.67,3.398,3.794v0.279h-5.727
				c0.088,1.333,1.025,2.446,2.549,2.446c0.805,0,1.626-0.322,2.182-0.894l0.527,0.718c-0.703,0.703-1.655,1.084-2.812,1.084
				C188.44,475.465,186.932,473.956,186.932,471.744z M190.403,468.947c-1.509,0-2.256,1.274-2.314,2.358h4.643
				C192.718,470.25,192.015,468.947,190.403,468.947z"/>
			<path style="fill:#A5B7C6;" d="M194.607,474.351l0.571-0.791c0.469,0.542,1.362,1.011,2.329,1.011c1.084,0,1.67-0.513,1.67-1.216
				c0-1.714-4.38-0.659-4.38-3.281c0-1.098,0.952-2.036,2.636-2.036c1.201,0,2.051,0.454,2.622,1.026l-0.513,0.762
				c-0.424-0.513-1.201-0.894-2.109-0.894c-0.967,0-1.567,0.483-1.567,1.113c0,1.552,4.38,0.527,4.38,3.281
				c0,1.187-0.952,2.138-2.783,2.138C196.306,475.465,195.325,475.113,194.607,474.351z"/>
			<path style="fill:#A5B7C6;" d="M201.477,466.471c0-0.41,0.337-0.747,0.732-0.747c0.41,0,0.747,0.337,0.747,0.747
				c0,0.41-0.337,0.732-0.747,0.732C201.814,467.203,201.477,466.881,201.477,466.471z M201.667,475.289v-7.075h1.099v7.075H201.667
				z"/>
			<path style="fill:#A5B7C6;" d="M204.582,477.105l0.556-0.82c0.586,0.703,1.289,0.967,2.3,0.967c1.172,0,2.27-0.571,2.27-2.124
				v-1.011c-0.513,0.718-1.377,1.26-2.373,1.26c-1.845,0-3.149-1.377-3.149-3.662c0-2.27,1.289-3.677,3.149-3.677
				c0.952,0,1.802,0.469,2.373,1.245v-1.069h1.098v6.87c0,2.344-1.641,3.076-3.369,3.076
				C206.237,478.16,205.417,477.926,204.582,477.105z M209.709,473.253v-3.091c-0.381-0.615-1.23-1.143-2.109-1.143
				c-1.421,0-2.27,1.128-2.27,2.695c0,1.553,0.849,2.695,2.27,2.695C208.478,474.41,209.328,473.868,209.709,473.253z"/>
			<path style="fill:#A5B7C6;" d="M217.413,475.289v-4.629c0-1.245-0.63-1.641-1.582-1.641c-0.865,0-1.685,0.527-2.095,1.099v5.17
				h-1.099v-7.075h1.099v1.025c0.498-0.586,1.465-1.201,2.519-1.201c1.48,0,2.256,0.747,2.256,2.285v4.966H217.413z"/>
			<path style="fill:#A5B7C6;" d="M219.932,471.744c0-2.051,1.465-3.706,3.486-3.706c2.139,0,3.398,1.67,3.398,3.794v0.279h-5.727
				c0.088,1.333,1.025,2.446,2.549,2.446c0.806,0,1.626-0.322,2.183-0.894l0.527,0.718c-0.703,0.703-1.655,1.084-2.812,1.084
				C221.441,475.465,219.932,473.956,219.932,471.744z M223.404,468.947c-1.509,0-2.256,1.274-2.314,2.358h4.643
				C225.718,470.25,225.015,468.947,223.404,468.947z"/>
			<path style="fill:#A5B7C6;" d="M233.35,475.289v-1.055c-0.527,0.718-1.392,1.23-2.388,1.23c-1.846,0-3.149-1.406-3.149-3.706
				c0-2.256,1.289-3.721,3.149-3.721c0.952,0,1.817,0.469,2.388,1.245v-3.765h1.098v9.77H233.35z M233.35,473.37v-3.208
				c-0.396-0.615-1.245-1.143-2.124-1.143c-1.421,0-2.27,1.172-2.27,2.739c0,1.567,0.849,2.724,2.27,2.724
				C232.105,474.483,232.954,473.986,233.35,473.37z"/>
			<path style="fill:#A5B7C6;" d="M239.692,475.289v-9.77h1.098v3.765c0.572-0.776,1.421-1.245,2.388-1.245
				c1.845,0,3.149,1.465,3.149,3.721c0,2.299-1.304,3.706-3.149,3.706c-0.996,0-1.86-0.513-2.388-1.23v1.055H239.692z
				 M242.9,474.483c1.436,0,2.285-1.157,2.285-2.724c0-1.568-0.85-2.739-2.285-2.739c-0.864,0-1.728,0.527-2.109,1.143v3.208
				C241.171,473.986,242.036,474.483,242.9,474.483z"/>
			<path style="fill:#A5B7C6;" d="M247.528,477.061c0.161,0.073,0.425,0.117,0.601,0.117c0.483,0,0.805-0.161,1.055-0.747
				l0.469-1.069l-2.959-7.148h1.187l2.358,5.8l2.344-5.8h1.201l-3.545,8.51c-0.425,1.025-1.143,1.421-2.08,1.435
				c-0.234,0-0.601-0.044-0.806-0.103L247.528,477.061z"/>
		</g>
	</g>
</g>
</svg>
